<svg width="152" height="92" viewBox="0 0 152 92" fill="none" xmlns="http://www.w3.org/2000/svg">
<path d="M9.99 58.4827C8.21 58.4827 6.65 58.1327 5.31 57.4327C3.99 56.7127 2.96 55.7327 2.22 54.4927C1.5 53.2527 1.14 51.8427 1.14 50.2627C1.14 48.6627 1.49 47.2527 2.19 46.0327C2.91 44.7927 3.89 43.8227 5.13 43.1227C6.39 42.4227 7.82 42.0727 9.42 42.0727C10.98 42.0727 12.37 42.4127 13.59 43.0927C14.81 43.7727 15.77 44.7327 16.47 45.9727C17.17 47.2127 17.52 48.6727 17.52 50.3527C17.52 50.5127 17.51 50.6927 17.49 50.8927C17.49 51.0927 17.48 51.2827 17.46 51.4627H4.11V48.9727H15.48L14.01 49.7527C14.03 48.8327 13.84 48.0227 13.44 47.3227C13.04 46.6227 12.49 46.0727 11.79 45.6727C11.11 45.2727 10.32 45.0727 9.42 45.0727C8.5 45.0727 7.69 45.2727 6.99 45.6727C6.31 46.0727 5.77 46.6327 5.37 47.3527C4.99 48.0527 4.8 48.8827 4.8 49.8427V50.4427C4.8 51.4027 5.02 52.2527 5.46 52.9927C5.9 53.7327 6.52 54.3027 7.32 54.7027C8.12 55.1027 9.04 55.3027 10.08 55.3027C10.98 55.3027 11.79 55.1627 12.51 54.8827C13.23 54.6027 13.87 54.1627 14.43 53.5627L16.44 55.8727C15.72 56.7127 14.81 57.3627 13.71 57.8227C12.63 58.2627 11.39 58.4827 9.99 58.4827ZM18.4927 58.2727L25.5427 49.0927L25.4827 51.1027L18.7627 42.2527H22.9327L27.6427 48.5527H26.0527L30.7927 42.2527H34.8427L28.0627 51.1027L28.0927 49.0927L35.1127 58.2727H30.8827L25.9327 51.5827L27.4927 51.7927L22.6327 58.2727H18.4927ZM38.2399 58.2727V37.2727H41.4499L50.6299 52.6027H48.9499L57.9799 37.2727H61.1899L61.2199 58.2727H57.5299L57.4999 43.0627H58.2799L50.5999 55.8727H48.8599L41.0599 43.0627H41.9599V58.2727H38.2399ZM76.4023 58.2727V55.0327L76.1923 54.3427V48.6727C76.1923 47.5727 75.8623 46.7227 75.2023 46.1227C74.5423 45.5027 73.5423 45.1927 72.2023 45.1927C71.3023 45.1927 70.4123 45.3327 69.5323 45.6127C68.6723 45.8927 67.9423 46.2827 67.3423 46.7827L65.8723 44.0527C66.7323 43.3927 67.7523 42.9027 68.9323 42.5827C70.1323 42.2427 71.3723 42.0727 72.6523 42.0727C74.9723 42.0727 76.7623 42.6327 78.0223 43.7527C79.3023 44.8527 79.9423 46.5627 79.9423 48.8827V58.2727H76.4023ZM71.3623 58.4827C70.1623 58.4827 69.1123 58.2827 68.2123 57.8827C67.3123 57.4627 66.6123 56.8927 66.1123 56.1727C65.6323 55.4327 65.3923 54.6027 65.3923 53.6827C65.3923 52.7827 65.6023 51.9727 66.0223 51.2527C66.4623 50.5327 67.1723 49.9627 68.1523 49.5427C69.1323 49.1227 70.4323 48.9127 72.0523 48.9127H76.7023V51.4027H72.3223C71.0423 51.4027 70.1823 51.6127 69.7423 52.0327C69.3023 52.4327 69.0823 52.9327 69.0823 53.5327C69.0823 54.2127 69.3523 54.7527 69.8923 55.1527C70.4323 55.5527 71.1823 55.7527 72.1423 55.7527C73.0623 55.7527 73.8823 55.5427 74.6023 55.1227C75.3423 54.7027 75.8723 54.0827 76.1923 53.2627L76.8223 55.5127C76.4623 56.4527 75.8123 57.1827 74.8723 57.7027C73.9523 58.2227 72.7823 58.4827 71.3623 58.4827ZM84.7549 58.2727V42.2527H88.3249V46.6627L87.9049 45.3727C88.3849 44.2927 89.1349 43.4727 90.1549 42.9127C91.1949 42.3527 92.4849 42.0727 94.0249 42.0727V45.6427C93.8649 45.6027 93.7149 45.5827 93.5749 45.5827C93.4349 45.5627 93.2949 45.5527 93.1549 45.5527C91.7349 45.5527 90.6049 45.9727 89.7649 46.8127C88.9249 47.6327 88.5049 48.8627 88.5049 50.5027V58.2727H84.7549ZM103.822 58.4827C102.062 58.4827 100.702 58.0327 99.742 57.1327C98.782 56.2127 98.302 54.8627 98.302 53.0827V38.7127H102.052V52.9927C102.052 53.7527 102.242 54.3427 102.622 54.7627C103.022 55.1827 103.572 55.3927 104.272 55.3927C105.112 55.3927 105.812 55.1727 106.372 54.7327L107.422 57.4027C106.982 57.7627 106.442 58.0327 105.802 58.2127C105.162 58.3927 104.502 58.4827 103.822 58.4827ZM95.662 45.3727V42.3727H106.342V45.3727H95.662Z" fill="white"/>
<path d="M79.7634 35.9032V18.2329H149.226V63.4748L79.7634 87.9999V67.7401" stroke="white" stroke-width="5"/>
<path d="M101.739 26.4588C101.376 19.0042 103.306 3.71201 114.207 3.00075C118.613 2.93236 127.398 7.52822 127.289 26.4588" stroke="white" stroke-width="5"/>
<circle cx="101.5" cy="25.5" r="3.5" fill="white"/>
<circle cx="127.5" cy="26.5" r="3.5" fill="white"/>
</svg>
